<?xml version="1.0" encoding="UTF-8" standalone="no"?>
<svg
   width="512"
   height="512"
   version="1.1"
   id="svg1"
   sodipodi:docname="nav-user.svg"
   inkscape:version="1.3.2 (091e20e, 2023-11-25, custom)"
   xmlns:inkscape="http://www.inkscape.org/namespaces/inkscape"
   xmlns:sodipodi="http://sodipodi.sourceforge.net/DTD/sodipodi-0.dtd"
   xmlns="http://www.w3.org/2000/svg"
   xmlns:svg="http://www.w3.org/2000/svg">
  <defs
     id="defs1" />
  <sodipodi:namedview
     id="namedview1"
     pagecolor="#ffffff"
     bordercolor="#000000"
     borderopacity="0.25"
     inkscape:showpageshadow="2"
     inkscape:pageopacity="0.0"
     inkscape:pagecheckerboard="0"
     inkscape:deskcolor="#d1d1d1"
     inkscape:zoom="1.6972656"
     inkscape:cx="255.41082"
     inkscape:cy="256"
     inkscape:window-width="2014"
     inkscape:window-height="1350"
     inkscape:window-x="3799"
     inkscape:window-y="140"
     inkscape:window-maximized="0"
     inkscape:current-layer="svg1" />
  <path
     inkscape:connector-curvature="0"
     id="path2-4"
     d="m 332.81822,294.23633 c 34.38777,-25.21847 55.02146,-66.48553 55.02146,-110.04571 0,-75.65544 -61.8997,-137.556558 -137.55623,-137.556558 -75.65476,0 -137.55728,61.901118 -137.55728,137.556558 0,43.56018 20.6337,84.82724 55.02387,110.04571 C 101.26316,324.03931 53.117509,385.94074 43.948218,459.30455 H 89.8001 c 11.46166,-77.94864 80.24235,-137.55701 160.48335,-137.55701 80.24102,0 149.02069,59.60837 160.48231,137.55701 h 45.85323 C 447.45221,385.94074 399.30414,324.04033 332.81822,294.23633 Z m -82.53477,-18.3413 c -50.43805,0 -91.70404,-41.26702 -91.70404,-91.70441 0,-50.43697 41.26739,-91.704 91.70404,-91.704 50.43806,0 91.70401,41.26703 91.70401,91.704 0,50.43739 -41.26595,91.70441 -91.70401,91.70441 z"
     style="fill:#4e9a06;fill-opacity:1;stroke-width:1.07191" />
</svg>
