<?xml version="1.0" encoding="UTF-8" standalone="no"?>
<svg
   width="512"
   height="512"
   version="1.1"
   id="svg1"
   sodipodi:docname="person-nav.svg"
   inkscape:version="1.3.2 (091e20e, 2023-11-25, custom)"
   xmlns:inkscape="http://www.inkscape.org/namespaces/inkscape"
   xmlns:sodipodi="http://sodipodi.sourceforge.net/DTD/sodipodi-0.dtd"
   xmlns="http://www.w3.org/2000/svg"
   xmlns:svg="http://www.w3.org/2000/svg">
  <defs
     id="defs1" />
  <sodipodi:namedview
     id="namedview1"
     pagecolor="#ffffff"
     bordercolor="#000000"
     borderopacity="0.25"
     inkscape:showpageshadow="2"
     inkscape:pageopacity="0.0"
     inkscape:pagecheckerboard="0"
     inkscape:deskcolor="#d1d1d1"
     inkscape:zoom="1.6972656"
     inkscape:cx="256"
     inkscape:cy="256"
     inkscape:window-width="1920"
     inkscape:window-height="1122"
     inkscape:window-x="-8"
     inkscape:window-y="-8"
     inkscape:window-maximized="1"
     inkscape:current-layer="svg1" />
  <path
     inkscape:connector-curvature="0"
     id="path2-4"
     d="m 307.30644,278.09273 c 25.10852,-18.41348 40.17439,-48.54498 40.17439,-80.35082 0,-55.24048 -45.1966,-100.438112 -100.43787,-100.438112 -55.23998,0 -100.43864,45.197632 -100.43864,100.438112 0,31.80584 15.06587,61.93734 40.17616,80.35082 -48.54598,21.76091 -83.69994,66.95877 -90.394977,120.52599 h 33.479147 c 8.36883,-56.91487 58.58965,-100.43844 117.17831,-100.43844 58.58867,0 108.80875,43.52357 117.17754,100.43844 h 33.48013 c -6.6932,-53.56722 -41.84892,-98.76433 -90.39419,-120.52599 z m -60.26348,-13.39205 c -36.82778,0 -66.9585,-30.13148 -66.9585,-66.95877 0,-36.82699 30.13175,-66.95847 66.9585,-66.95847 36.82778,0 66.95847,30.13148 66.95847,66.95847 0,36.82729 -30.13069,66.95877 -66.95847,66.95877 z"
     style="fill:#4e9a06;fill-opacity:1;stroke-width:0.782655" />
</svg>
